<svg xmlns="http://www.w3.org/2000/svg" width="30" height="42" viewBox="0 0 30 42">
  <defs><filter id="s" x="-30%" y="-30%" width="160%" height="160%"><feDropShadow dx="0" dy="1" stdDeviation="0.8" flood-color="#000" flood-opacity="0.35"/></filter></defs>
  <path filter="url(#s)" d="M15 1C7.8 1 2 6.8 2 14c0 9.4 13 26 13 26s13-16.6 13-26C28 6.8 22.2 1 15 1z" fill="#14532D"/>
  <circle cx="15" cy="14" r="9.2" fill="#FFFFFF"/>
  <g fill="#14532D">
    <rect x="14.2" y="17.4" width="1.6" height="3.1" rx="0.3"/>
    <path d="M15 6.2 L11.7 10.6 L13.4 10.6 L10.6 14.1 L13.7 14.1 L10.2 17.8 L19.8 17.8 L16.3 14.1 L19.4 14.1 L16.6 10.6 L18.3 10.6 Z"/>
  </g>
</svg>
