<svg xmlns="http://www.w3.org/2000/svg" width="30" height="42" viewBox="0 0 30 42">
  <defs><filter id="s" x="-30%" y="-30%" width="160%" height="160%"><feDropShadow dx="0" dy="1" stdDeviation="0.8" flood-color="#000" flood-opacity="0.35"/></filter></defs>
  <path filter="url(#s)" d="M15 1C7.8 1 2 6.8 2 14c0 9.4 13 26 13 26s13-16.6 13-26C28 6.8 22.2 1 15 1z" fill="#E0A82E"/>
  <circle cx="15" cy="14" r="9.2" fill="#FFFFFF"/>
  <path fill="#E0A82E" d="M15 18.6c-.3-.2-5.4-3.6-5.4-6.9 0-1.6 1.2-2.8 2.7-2.8 1 0 1.9.6 2.7 1.8.8-1.2 1.7-1.8 2.7-1.8 1.5 0 2.7 1.2 2.7 2.8 0 3.3-5.1 6.7-5.4 6.9z"/>
</svg>
