<svg xmlns="http://www.w3.org/2000/svg" width="30" height="42" viewBox="0 0 30 42">
  <defs>
    <filter id="s" x="-30%" y="-30%" width="160%" height="160%">
      <feDropShadow dx="0" dy="1" stdDeviation="0.8" flood-color="#000" flood-opacity="0.35"/>
    </filter>
  </defs>
  <path filter="url(#s)" d="M15 1C7.8 1 2 6.8 2 14c0 9.4 13 26 13 26s13-16.6 13-26C28 6.8 22.2 1 15 1z" fill="#0E7C86"/>
  <circle cx="15" cy="14" r="9.2" fill="#FFFFFF"/>
  <g fill="#0E7C86">
    <path d="M18.5 14.2 L23 18.8 L20.2 17.6 Z"/>
    <ellipse cx="15" cy="14.2" rx="4.6" ry="3.5"/>
    <circle cx="11.2" cy="11.2" r="2.7"/>
    <path d="M9.1 10.9 L6.4 11.5 L9.1 12.6 Z"/>
    <path d="M15.4 13.2c1.8-.3 3.4.3 4.4 1.7-1.7.6-3.3.4-4.7-.6z" fill="#FFFFFF" opacity="0.9"/>
    <path d="M14 17.4 l-.6 2.4 M16 17.4 l.5 2.4" stroke="#0E7C86" stroke-width="0.7" stroke-linecap="round"/>
  </g>
  <circle cx="10.7" cy="10.7" r="0.7" fill="#FFFFFF"/>
</svg>
