<svg xmlns="http://www.w3.org/2000/svg" width="30" height="42" viewBox="0 0 30 42">
  <defs><filter id="s" x="-30%" y="-30%" width="160%" height="160%"><feDropShadow dx="0" dy="1" stdDeviation="0.8" flood-color="#000" flood-opacity="0.35"/></filter></defs>
  <path filter="url(#s)" d="M15 1C7.8 1 2 6.8 2 14c0 9.4 13 26 13 26s13-16.6 13-26C28 6.8 22.2 1 15 1z" fill="#2E8B57"/>
  <circle cx="15" cy="14" r="9.2" fill="#FFFFFF"/>
  <g fill="#2E8B57">
    <!-- trunk -->
    <path d="M14.4 19.6 C14.7 16 14.9 13.5 15.2 11.8 L16.4 12 C16.1 13.7 15.9 16 15.8 19.6 Z"/>
    <!-- fronds radiating from crown ~ (15.3,11.4) -->
    <path d="M15.3 11.4 C12.5 9.6 10 9.4 7.8 10.6 C10.4 10.2 12.8 10.6 15.3 11.4 Z"/>
    <path d="M15.3 11.4 C18.1 9.6 20.6 9.4 22.8 10.6 C20.2 10.2 17.8 10.6 15.3 11.4 Z"/>
    <path d="M15.3 11.4 C13.4 8.9 11.2 7.7 8.9 7.7 C11.4 8.4 13.4 9.6 15.3 11.4 Z"/>
    <path d="M15.3 11.4 C17.2 8.9 19.4 7.7 21.7 7.7 C19.2 8.4 17.2 9.6 15.3 11.4 Z"/>
    <path d="M15.3 11.4 C15.1 8.6 15.6 6.6 16.9 5.2 C15.7 6.9 15.5 9 15.3 11.4 Z"/>
    <circle cx="15.3" cy="11.5" r="1"/>
  </g>
</svg>
